<svg width="462" height="178" viewBox="0 0 462 178" fill="none" xmlns="http://www.w3.org/2000/svg">
<path d="M202.159 65.4717L197.813 69.9883V82H193.126V46.4531H197.813V64.0312L213.609 46.4531H219.273L205.284 62.1514L220.372 82H214.757L202.159 65.4717ZM231.452 55.584L231.599 58.9043C233.617 56.3652 236.254 55.0957 239.509 55.0957C245.091 55.0957 247.907 58.2451 247.956 64.5439V82H243.439V64.5195C243.423 62.6152 242.984 61.2074 242.121 60.2959C241.275 59.3844 239.948 58.9287 238.142 58.9287C236.677 58.9287 235.391 59.3193 234.284 60.1006C233.177 60.8818 232.315 61.9072 231.696 63.1768V82H227.18V55.584H231.452ZM257.571 68.5479C257.571 65.96 258.076 63.6325 259.085 61.5654C260.11 59.4984 261.526 57.9033 263.333 56.7803C265.156 55.6572 267.231 55.0957 269.559 55.0957C273.156 55.0957 276.061 56.3408 278.274 58.8311C280.504 61.3213 281.619 64.6335 281.619 68.7676V69.085C281.619 71.6566 281.123 73.9678 280.13 76.0186C279.153 78.0531 277.745 79.64 275.906 80.7793C274.083 81.9186 271.984 82.4883 269.607 82.4883C266.027 82.4883 263.121 81.2432 260.892 78.7529C258.678 76.2627 257.571 72.9668 257.571 68.8652V68.5479ZM262.112 69.085C262.112 72.0146 262.788 74.3665 264.139 76.1406C265.506 77.9147 267.329 78.8018 269.607 78.8018C271.902 78.8018 273.725 77.9066 275.076 76.1162C276.427 74.3096 277.103 71.7868 277.103 68.5479C277.103 65.6507 276.411 63.307 275.027 61.5166C273.66 59.71 271.837 58.8066 269.559 58.8066C267.329 58.8066 265.53 59.6937 264.163 61.4678C262.796 63.2419 262.112 65.7809 262.112 69.085ZM314.672 75.7744L319.75 55.584H324.267L316.576 82H312.914L306.493 61.9805L300.243 82H296.581L288.915 55.584H293.407L298.607 75.3594L304.76 55.584H308.397L314.672 75.7744Z" fill="black"/>
<path d="M220.445 128.964C220.331 131.438 219.664 133.627 218.443 135.531C217.223 137.419 215.506 138.884 213.292 139.926C211.095 140.967 208.58 141.488 205.748 141.488C201.077 141.488 197.398 139.966 194.713 136.923C192.027 133.879 190.685 129.582 190.685 124.032V122.274C190.685 118.791 191.287 115.748 192.491 113.144C193.712 110.523 195.462 108.505 197.74 107.089C200.019 105.657 202.656 104.94 205.65 104.94C209.964 104.94 213.43 106.08 216.051 108.358C218.671 110.621 220.16 113.746 220.519 117.733H211.974C211.909 115.569 211.363 114.014 210.338 113.07C209.312 112.126 207.75 111.654 205.65 111.654C203.518 111.654 201.956 112.452 200.963 114.047C199.97 115.642 199.449 118.189 199.4 121.688V124.203C199.4 127.995 199.872 130.705 200.816 132.333C201.777 133.961 203.421 134.774 205.748 134.774C207.717 134.774 209.223 134.311 210.265 133.383C211.306 132.455 211.86 130.982 211.925 128.964H220.445ZM258.601 123.959C258.601 127.426 257.958 130.494 256.672 133.163C255.386 135.832 253.555 137.891 251.179 139.34C248.819 140.772 246.125 141.488 243.098 141.488C240.07 141.488 237.385 140.797 235.041 139.413C232.697 138.013 230.866 136.02 229.548 133.432C228.246 130.844 227.562 127.873 227.497 124.521V122.519C227.497 119.035 228.132 115.967 229.401 113.314C230.687 110.645 232.518 108.586 234.895 107.138C237.287 105.689 240.005 104.965 243.049 104.965C246.06 104.965 248.745 105.681 251.105 107.113C253.465 108.546 255.297 110.588 256.599 113.241C257.917 115.878 258.584 118.905 258.601 122.323V123.959ZM249.885 122.47C249.885 118.938 249.291 116.26 248.103 114.438C246.931 112.598 245.246 111.679 243.049 111.679C238.752 111.679 236.481 114.901 236.237 121.347L236.213 123.959C236.213 127.442 236.791 130.119 237.946 131.991C239.102 133.863 240.819 134.799 243.098 134.799C245.262 134.799 246.931 133.879 248.103 132.04C249.274 130.201 249.868 127.556 249.885 124.105V122.47ZM280.276 131.332L287.356 105.453H296.927L284.964 141H275.589L263.724 105.453H273.221L280.276 131.332ZM312.67 141H304.125V105.453H312.67V141ZM322.627 141V105.453H334.077C337.218 105.453 340.042 106.169 342.549 107.602C345.055 109.018 347.008 111.028 348.408 113.632C349.824 116.22 350.54 119.125 350.557 122.348V123.983C350.557 127.239 349.865 130.16 348.481 132.748C347.114 135.32 345.177 137.338 342.671 138.803C340.181 140.251 337.397 140.984 334.321 141H322.627ZM331.196 112.069V134.408H334.175C336.632 134.408 338.521 133.537 339.839 131.796C341.157 130.038 341.816 127.434 341.816 123.983V122.445C341.816 119.011 341.157 116.423 339.839 114.682C338.521 112.94 336.6 112.069 334.077 112.069H331.196ZM391.101 128.866H376.428V122.494H391.101V128.866ZM419.637 141H411.385V114.73L403.279 117.099V110.849L418.88 105.453H419.637V141ZM450.565 127.255C448.791 128.85 446.806 129.647 444.608 129.647C441.386 129.647 438.83 128.557 436.942 126.376C435.054 124.195 434.11 121.282 434.11 117.636C434.11 115.357 434.639 113.241 435.697 111.288C436.755 109.335 438.236 107.789 440.141 106.649C442.061 105.51 444.177 104.94 446.488 104.94C448.832 104.94 450.948 105.535 452.836 106.723C454.74 107.895 456.221 109.563 457.279 111.728C458.337 113.876 458.882 116.358 458.915 119.174V122.323C458.915 126.246 458.142 129.647 456.596 132.528C455.066 135.409 452.877 137.623 450.028 139.169C447.18 140.715 443.86 141.488 440.067 141.488H439.555V134.896L441.117 134.872C446.781 134.595 449.931 132.056 450.565 127.255ZM446.83 123.715C448.62 123.715 449.906 122.942 450.688 121.396V117.978C450.688 115.699 450.305 114.014 449.54 112.924C448.775 111.833 447.742 111.288 446.439 111.288C445.284 111.288 444.315 111.907 443.534 113.144C442.753 114.381 442.362 115.878 442.362 117.636C442.362 119.491 442.761 120.972 443.559 122.079C444.356 123.17 445.447 123.715 446.83 123.715Z" fill="black"/>
<path opacity="0.99" fill-rule="evenodd" clip-rule="evenodd" d="M80.4107 11.1864C81.4345 15.7936 79.6705 18.655 77.9585 21.4318C76.6861 23.4957 75.4425 25.5129 75.3939 28.1655C75.3326 31.5117 76.0043 34.7539 76.5722 37.4951C76.904 39.0967 77.2003 40.5272 77.2944 41.7073C80.2613 41.1362 83.325 40.8371 86.4586 40.8371C88.0657 40.8371 89.6545 40.9157 91.2212 41.0694C90.8431 40.272 90.4157 39.5042 89.9887 38.7368C88.5863 36.217 87.1867 33.7021 87.5398 30.1632C88.297 22.576 95.4755 17.168 102.244 18.509C109.013 19.8501 114.209 26.6367 112.308 34.4193C111.188 39.004 108.34 40.7898 105.577 42.5229C104.854 42.9761 104.137 43.4258 103.458 43.9209C109.13 46.0597 114.293 49.2378 118.714 53.223C120.148 51.2398 121.674 48.9709 122.805 46.4065C123.87 43.9887 123.822 41.6239 123.774 39.2629C123.715 36.3797 123.656 33.5022 125.626 30.5409C129.848 24.192 138.724 22.776 144.076 27.1311C149.428 31.4862 150.84 39.9161 145.516 45.9019C142.379 49.4282 139.026 49.6722 135.773 49.9089C133.355 50.0849 130.991 50.2569 128.812 51.7698C126.443 53.4144 124.455 55.4552 122.74 57.3092C126.049 61.0911 128.777 65.3948 130.782 70.0809C130.906 69.9142 131.03 69.7472 131.153 69.5801C132.867 67.2607 134.577 64.9457 137.945 63.8027C145.165 61.3519 153.059 65.6487 154.64 72.3656C156.22 79.0824 152.192 86.6213 144.321 88.1117C139.894 88.9498 137.137 87.2987 134.529 85.5823C134.609 86.7206 134.65 87.8698 134.65 89.0286C134.65 93.153 134.132 97.1564 133.157 100.977C133.438 101.016 133.725 101.056 134.017 101.097L134.018 101.097H134.018H134.018C136.836 101.492 140.189 101.963 143.652 101.681C146.286 101.467 148.342 100.299 150.396 99.1324C152.903 97.7081 155.406 96.2866 158.948 96.6088C166.541 97.2998 172.012 104.431 170.73 111.211C169.448 117.991 162.707 123.246 154.908 121.413C150.314 120.334 148.503 117.501 146.746 114.753C145.44 112.71 144.164 110.713 141.796 109.517C138.808 108.008 135.596 107.204 132.881 106.524C132.407 106.406 131.949 106.291 131.51 106.177C129.349 111.849 126.148 117.008 122.14 121.421C123.947 123.027 126.021 124.743 128.419 126.106C130.716 127.411 133.073 127.604 135.427 127.796C138.301 128.03 141.17 128.265 143.916 130.525C149.802 135.371 150.309 144.344 145.432 149.226C140.556 154.108 132.026 154.656 126.612 148.751C123.423 145.272 123.521 141.912 123.616 138.651C123.687 136.227 123.756 133.859 122.473 131.537C121.201 129.236 119.569 127.217 118.026 125.443C109.57 132.78 98.5327 137.22 86.4586 137.22C73.3256 137.22 61.4196 131.967 52.7273 123.447C51.6341 125.114 50.5546 126.956 49.719 128.972C48.7072 131.412 48.8076 133.776 48.9079 136.135C49.0304 139.016 49.1526 141.892 47.249 144.896C43.1676 151.336 34.3256 152.948 28.8785 148.712C23.4313 144.476 21.8333 136.08 27.0245 129.978C30.0826 126.383 33.429 126.065 36.6765 125.756C39.0903 125.527 41.4494 125.303 43.5949 123.742C45.5523 122.319 47.2351 120.622 48.7144 118.995C44.8337 114.113 41.8799 108.462 40.1195 102.307C38.7772 103.876 38.0183 105.673 37.2603 107.468C36.1383 110.125 35.0185 112.776 32.0125 114.677C25.568 118.752 16.8867 116.425 13.7756 110.266C10.6645 104.107 12.8126 95.8341 20.1153 92.5399C24.4174 90.5992 27.5781 91.7436 30.6453 92.8542C32.9251 93.6796 35.1533 94.4864 37.7603 93.9938C38.0098 93.9466 38.2578 93.8955 38.5043 93.8407C38.3474 92.2579 38.2671 90.6526 38.2671 89.0286C38.2671 84.5252 38.8848 80.1662 40.0401 76.0315C39.3416 75.9929 38.5906 75.9335 37.7974 75.8707C34.9609 75.6462 31.5849 75.3791 28.1446 75.8691C25.5289 76.2416 23.5465 77.5318 21.5672 78.8199C19.1503 80.3929 16.738 81.9628 13.1832 81.8549C5.56181 81.6234 -0.32897 74.8355 0.541498 67.9903C1.41195 61.1452 7.82362 55.4929 15.7189 56.8518C20.37 57.6524 22.3482 60.3702 24.2679 63.0076C25.6948 64.968 27.0893 66.8839 29.5252 67.9353C32.598 69.2615 35.8527 69.87 38.6043 70.3846C39.7549 70.5997 40.8175 70.7984 41.742 71.0262C44.1226 65.1188 47.6397 59.7915 52.0227 55.3152C49.714 54.2844 47.4244 54.265 45.1383 54.2457C42.2546 54.2213 39.3766 54.1969 36.4733 52.1427C30.2489 47.7387 29.0897 38.8262 33.5975 33.6018C38.1052 28.3774 46.5724 27.209 52.402 32.7041C55.8363 35.9414 55.9834 39.2996 56.1262 42.5586C56.2323 44.9809 56.336 47.3484 57.7854 49.5706C57.8915 49.7333 57.9994 49.8943 58.109 50.0536C62.4561 46.8862 67.3533 44.4284 72.6303 42.8504C72.1339 41.7746 71.6893 40.3874 71.1901 38.8298L71.19 38.8295C70.3215 36.12 69.2879 32.8952 67.5294 29.8981C66.1924 27.6193 64.2465 26.2746 62.3038 24.932C59.9314 23.2925 57.5637 21.6562 56.3149 18.3262C53.6376 11.1868 57.6832 3.16117 64.3468 1.36958C71.0105 -0.422019 78.6727 3.36591 80.4107 11.1864Z" fill="#E93736"/>
<path d="M124.958 92.6706C123.702 119.744 91 124.671 98.7443 159.979C95.0632 167.241 87.5384 159.881 86.4788 172C86.894 160.996 80.8547 168.13 76.2173 159.979C72.2268 152.965 76.2173 134.524 65.1586 124.671C56.4023 114.412 48.4893 106.189 48 92.6706C48 70.2088 65.2275 52 86.4788 52C107.73 52 125.998 70.2331 124.958 92.6706Z" fill="white"/>
<path d="M99.2379 166.209H72.3262C74.2834 169.648 78.9807 176.631 86.0267 177.043C93.0727 177.456 98.0962 169.992 99.2379 166.209Z" fill="#050C18"/>
<rect x="67.9224" y="157.954" width="35.23" height="5.15934" rx="2.57967" fill="#050C18"/>
<rect x="65.9651" y="148.667" width="39.1444" height="5.15934" rx="2.57967" fill="#050C18"/>
</svg>
