<svg width="77" height="97" viewBox="0 0 77 97" fill="none" xmlns="http://www.w3.org/2000/svg">
<path d="M24.992 12.5C24.992 5.59644 30.5884 0 37.492 0C44.3956 0 49.992 5.59644 49.992 12.5V36.5C49.992 43.4036 44.3956 49 37.492 49C30.5884 49 24.992 43.4036 24.992 36.5V12.5Z" fill="#FA0100"/>
<ellipse cx="29.492" cy="10.0882" rx="1.5" ry="1.44118" fill="white"/>
<ellipse cx="29.492" cy="14.8922" rx="1.5" ry="1.44118" fill="white"/>
<ellipse cx="29.492" cy="19.6961" rx="1.5" ry="1.44118" fill="white"/>
<ellipse cx="34.492" cy="10.0882" rx="1.5" ry="1.44118" fill="white"/>
<ellipse cx="34.492" cy="14.8922" rx="1.5" ry="1.44118" fill="white"/>
<ellipse cx="34.492" cy="19.6961" rx="1.5" ry="1.44118" fill="white"/>
<ellipse cx="39.492" cy="10.0882" rx="1.5" ry="1.44118" fill="white"/>
<ellipse cx="39.492" cy="14.8922" rx="1.5" ry="1.44118" fill="white"/>
<ellipse cx="39.492" cy="19.6961" rx="1.5" ry="1.44118" fill="white"/>
<ellipse cx="44.492" cy="10.0882" rx="1.5" ry="1.44118" fill="white"/>
<ellipse cx="44.492" cy="14.8922" rx="1.5" ry="1.44118" fill="white"/>
<ellipse cx="44.492" cy="19.6961" rx="1.5" ry="1.44118" fill="white"/>
<path d="M50.3992 61.053C50.4765 67.9562 44.9431 73.6149 38.04 73.6922C31.1368 73.7695 25.4781 68.2361 25.4008 61.333L25.132 37.3345C25.0547 30.4314 30.5881 24.7726 37.4913 24.6953C44.3944 24.618 50.0531 30.1514 50.1304 37.0545L50.3992 61.053Z" fill="#FE0002"/>
<ellipse cx="45.9265" cy="63.515" rx="1.5" ry="1.44118" transform="rotate(179.358 45.9265 63.515)" fill="white"/>
<ellipse cx="45.8727" cy="58.7114" rx="1.5" ry="1.44118" transform="rotate(179.358 45.8727 58.7114)" fill="white"/>
<ellipse cx="45.8189" cy="53.9078" rx="1.5" ry="1.44118" transform="rotate(179.358 45.8189 53.9078)" fill="white"/>
<ellipse cx="40.9268" cy="63.571" rx="1.5" ry="1.44118" transform="rotate(179.358 40.9268 63.571)" fill="white"/>
<ellipse cx="40.873" cy="58.7674" rx="1.5" ry="1.44118" transform="rotate(179.358 40.873 58.7674)" fill="white"/>
<ellipse cx="40.8192" cy="53.9638" rx="1.5" ry="1.44118" transform="rotate(179.358 40.8192 53.9638)" fill="white"/>
<ellipse cx="35.9271" cy="63.627" rx="1.5" ry="1.44118" transform="rotate(179.358 35.9271 63.627)" fill="white"/>
<ellipse cx="35.8733" cy="58.8234" rx="1.5" ry="1.44118" transform="rotate(179.358 35.8733 58.8234)" fill="white"/>
<ellipse cx="35.8195" cy="54.0198" rx="1.5" ry="1.44118" transform="rotate(179.358 35.8195 54.0198)" fill="white"/>
<ellipse cx="30.9274" cy="63.683" rx="1.5" ry="1.44118" transform="rotate(179.358 30.9274 63.683)" fill="white"/>
<ellipse cx="30.8736" cy="58.8794" rx="1.5" ry="1.44118" transform="rotate(179.358 30.8736 58.8794)" fill="white"/>
<ellipse cx="30.8198" cy="54.0758" rx="1.5" ry="1.44118" transform="rotate(179.358 30.8198 54.0758)" fill="white"/>
<path d="M10.1787 46.7746C5.16927 46.803 1.08535 42.765 1.05699 37.7556C1.02863 32.7462 5.06658 28.6623 10.076 28.6339L38.9346 28.4706C43.944 28.4422 48.0279 32.4802 48.0562 37.4896C48.0846 42.499 44.0467 46.5829 39.0372 46.6113L10.1787 46.7746Z" stroke="black" stroke-width="2"/>
<ellipse cx="9.96505" cy="42.028" rx="0.907354" ry="0.916565" transform="rotate(-90.3243 9.96505 42.028)" fill="#FE0002"/>
<ellipse cx="13.0202" cy="42.0107" rx="0.907354" ry="0.916565" transform="rotate(-90.3243 13.0202 42.0107)" fill="#FE0002"/>
<ellipse cx="16.0754" cy="41.9935" rx="0.907354" ry="0.916565" transform="rotate(-90.3243 16.0754 41.9935)" fill="#FE0002"/>
<ellipse cx="9.94794" cy="39.0036" rx="0.907354" ry="0.916565" transform="rotate(-90.3243 9.94794 39.0036)" fill="#FE0002"/>
<ellipse cx="13.0031" cy="38.9863" rx="0.907354" ry="0.916565" transform="rotate(-90.3243 13.0031 38.9863)" fill="#FE0002"/>
<ellipse cx="16.0583" cy="38.969" rx="0.907354" ry="0.916565" transform="rotate(-90.3243 16.0583 38.969)" fill="#FE0002"/>
<ellipse cx="9.93079" cy="35.9791" rx="0.907354" ry="0.916565" transform="rotate(-90.3243 9.93079 35.9791)" fill="#FE0002"/>
<ellipse cx="12.986" cy="35.9618" rx="0.907354" ry="0.916565" transform="rotate(-90.3243 12.986 35.9618)" fill="#FE0002"/>
<ellipse cx="16.0411" cy="35.9445" rx="0.907354" ry="0.916565" transform="rotate(-90.3243 16.0411 35.9445)" fill="#FE0002"/>
<ellipse cx="9.9137" cy="32.9547" rx="0.907354" ry="0.916565" transform="rotate(-90.3243 9.9137 32.9547)" fill="#FE0002"/>
<ellipse cx="12.9689" cy="32.9374" rx="0.907354" ry="0.916565" transform="rotate(-90.3243 12.9689 32.9374)" fill="#FE0002"/>
<ellipse cx="16.024" cy="32.9201" rx="0.907354" ry="0.916565" transform="rotate(-90.3243 16.024 32.9201)" fill="#FE0002"/>
<path d="M66.2727 24.1639C71.0938 24.0826 75.0679 27.925 75.1492 32.746C75.2305 37.5671 71.3882 41.5413 66.5671 41.6225L37.0324 42.1205C32.2113 42.2018 28.2372 38.3595 28.1559 33.5384C28.0746 28.7173 31.917 24.7432 36.738 24.6619L66.2727 24.1639Z" stroke="black" stroke-width="2"/>
<ellipse cx="65.7101" cy="28.0803" rx="0.945472" ry="1.01335" transform="rotate(89.034 65.7101 28.0803)" fill="#FE0002"/>
<ellipse cx="62.3327" cy="28.1372" rx="0.945472" ry="1.01335" transform="rotate(89.034 62.3327 28.1372)" fill="#FE0002"/>
<ellipse cx="58.9553" cy="28.1942" rx="0.945472" ry="1.01335" transform="rotate(89.034 58.9553 28.1942)" fill="#FE0002"/>
<ellipse cx="65.7632" cy="31.2314" rx="0.945472" ry="1.01335" transform="rotate(89.034 65.7632 31.2314)" fill="#FE0002"/>
<ellipse cx="62.3858" cy="31.2883" rx="0.945472" ry="1.01335" transform="rotate(89.034 62.3858 31.2883)" fill="#FE0002"/>
<ellipse cx="59.0085" cy="31.3453" rx="0.945472" ry="1.01335" transform="rotate(89.034 59.0085 31.3453)" fill="#FE0002"/>
<ellipse cx="65.8163" cy="34.3825" rx="0.945472" ry="1.01335" transform="rotate(89.034 65.8163 34.3825)" fill="#FE0002"/>
<ellipse cx="62.439" cy="34.4395" rx="0.945472" ry="1.01335" transform="rotate(89.034 62.439 34.4395)" fill="#FE0002"/>
<ellipse cx="59.0616" cy="34.4964" rx="0.945472" ry="1.01335" transform="rotate(89.034 59.0616 34.4964)" fill="#FE0002"/>
<ellipse cx="65.8695" cy="37.5336" rx="0.945472" ry="1.01335" transform="rotate(89.034 65.8695 37.5336)" fill="#FE0002"/>
<ellipse cx="62.4921" cy="37.5906" rx="0.945472" ry="1.01335" transform="rotate(89.034 62.4921 37.5906)" fill="#FE0002"/>
<ellipse cx="59.1147" cy="37.6475" rx="0.945472" ry="1.01335" transform="rotate(89.034 59.1147 37.6475)" fill="#FE0002"/>
<path d="M8.69318 94.418H12.2733V96H6.63654V87.4688H8.69318V94.418ZM17.8326 96H15.8522V89.6602H17.8326V96ZM15.735 88.0254C15.735 87.7441 15.8365 87.5137 16.0397 87.334C16.2428 87.1543 16.5065 87.0645 16.8307 87.0645C17.1549 87.0645 17.4186 87.1543 17.6217 87.334C17.8248 87.5137 17.9264 87.7441 17.9264 88.0254C17.9264 88.3066 17.8248 88.5371 17.6217 88.7168C17.4186 88.8965 17.1549 88.9863 16.8307 88.9863C16.5065 88.9863 16.2428 88.8965 16.0397 88.7168C15.8365 88.5371 15.735 88.3066 15.735 88.0254ZM23.5678 89.6602L23.6322 90.4043C24.0697 89.8301 24.6733 89.543 25.4428 89.543C26.1029 89.543 26.5951 89.7402 26.9193 90.1348C27.2475 90.5293 27.4174 91.123 27.4291 91.916V96H25.4486V91.998C25.4486 91.6777 25.3842 91.4434 25.2553 91.2949C25.1264 91.1426 24.892 91.0664 24.5522 91.0664C24.1654 91.0664 23.8783 91.2188 23.6908 91.5234V96H21.7162V89.6602H23.5678ZM33.7736 93.6387L33.217 94.1953V96H31.2424V86.9941H33.217V91.7754L33.4162 91.5117L34.9045 89.6602H37.2717L35.051 92.2676L37.4182 96H35.1565L33.7736 93.6387ZM51.1151 94.4062H48.2967L47.8045 96H45.6072L48.7361 87.4688H50.6697L53.8221 96H51.6131L51.1151 94.4062ZM48.7889 92.8184H50.6229L49.7029 89.8594L48.7889 92.8184ZM59.1412 96H57.1608V89.6602H59.1412V96ZM57.0436 88.0254C57.0436 87.7441 57.1451 87.5137 57.3483 87.334C57.5514 87.1543 57.8151 87.0645 58.1393 87.0645C58.4635 87.0645 58.7272 87.1543 58.9303 87.334C59.1334 87.5137 59.235 87.7441 59.235 88.0254C59.235 88.3066 59.1334 88.5371 58.9303 88.7168C58.7272 88.8965 58.4635 88.9863 58.1393 88.9863C57.8151 88.9863 57.5514 88.8965 57.3483 88.7168C57.1451 88.5371 57.0436 88.3066 57.0436 88.0254ZM62.8139 92.7832C62.8139 91.7793 63.0307 90.9883 63.4643 90.4102C63.8979 89.832 64.5033 89.543 65.2807 89.543C65.8471 89.543 66.3236 89.7656 66.7104 90.2109V87H68.6908V96H66.9154L66.8158 95.3203C66.4096 95.8516 65.894 96.1172 65.269 96.1172C64.5151 96.1172 63.9174 95.8281 63.476 95.25C63.0346 94.6719 62.8139 93.8496 62.8139 92.7832ZM64.7885 92.9062C64.7885 94.0312 65.1166 94.5938 65.7729 94.5938C66.2104 94.5938 66.5229 94.4102 66.7104 94.043V91.6289C66.5307 91.2539 66.2221 91.0664 65.7846 91.0664C65.1752 91.0664 64.8451 91.5586 64.7943 92.543L64.7885 92.9062Z" fill="#FE0002"/>
</svg>
